<svg class="main-svg" xmlns="http://www.w3.org/2000/svg" xmlns:xlink="http://www.w3.org/1999/xlink" width="749" height="450" style="background: rgb(255, 255, 255);"><defs id="defs-b33268"><g class="clips"><clipPath id="clipb33268xyplot" class="plotclip"><rect width="589" height="247"></rect></clipPath><clipPath class="axesclip" id="clipb33268x"><rect x="80" y="0" width="589" height="450"></rect></clipPath><clipPath class="axesclip" id="clipb33268y"><rect x="0" y="100" width="749" height="247"></rect></clipPath><clipPath class="axesclip" id="clipb33268xy"><rect x="80" y="100" width="589" height="247"></rect></clipPath></g><g class="gradients"></g></defs><g class="bglayer"></g><g class="draglayer cursor-crosshair"><g class="xy"><rect class="nsewdrag drag" data-subplot="xy" x="80" y="100" width="589" height="247" style="fill: transparent; stroke-width: 0; pointer-events: all;"></rect><rect class="nwdrag drag cursor-nw-resize" data-subplot="xy" x="60" y="80" width="20" height="20" style="fill: transparent; stroke-width: 0; pointer-events: all;"></rect><rect class="nedrag drag cursor-ne-resize" data-subplot="xy" x="669" y="80" width="20" height="20" style="fill: transparent; stroke-width: 0; pointer-events: all;"></rect><rect class="swdrag drag cursor-sw-resize" data-subplot="xy" x="60" y="347" width="20" height="20" style="fill: transparent; stroke-width: 0; pointer-events: all;"></rect><rect class="sedrag drag cursor-se-resize" data-subplot="xy" x="669" y="347" width="20" height="20" style="fill: transparent; stroke-width: 0; pointer-events: all;"></rect><rect class="ewdrag drag cursor-ew-resize" data-subplot="xy" x="138.9" y="347.5" width="471.20000000000005" height="20" style="fill: transparent; stroke-width: 0; pointer-events: all;"></rect><rect class="wdrag drag cursor-w-resize" data-subplot="xy" x="80" y="347.5" width="58.900000000000006" height="20" style="fill: transparent; stroke-width: 0; pointer-events: all;"></rect><rect class="edrag drag cursor-e-resize" data-subplot="xy" x="610.1" y="347.5" width="58.900000000000006" height="20" style="fill: transparent; stroke-width: 0; pointer-events: all;"></rect><rect class="nsdrag drag cursor-ns-resize" data-subplot="xy" x="59.5" y="124.7" width="20" height="197.60000000000002" style="fill: transparent; stroke-width: 0; pointer-events: all;"></rect><rect class="sdrag drag cursor-s-resize" data-subplot="xy" x="59.5" y="322.3" width="20" height="24.700000000000003" style="fill: transparent; stroke-width: 0; pointer-events: all;"></rect><rect class="ndrag drag cursor-n-resize" data-subplot="xy" x="59.5" y="100" width="20" height="24.700000000000003" style="fill: transparent; stroke-width: 0; pointer-events: all;"></rect></g></g><g class="layer-below"><g class="imagelayer"></g><g class="shapelayer"></g></g><g class="cartesianlayer"><g class="subplot xy"><g class="layer-subplot"><g class="shapelayer"></g><g class="imagelayer"></g></g><g class="gridlayer"><g class="x"><path class="xgrid crisp" transform="translate(91.31,0)" d="M0,100v247" style="stroke: rgb(238, 238, 238); stroke-opacity: 1; stroke-width: 1px;"></path><path class="xgrid crisp" transform="translate(193.76,0)" d="M0,100v247" style="stroke: rgb(238, 238, 238); stroke-opacity: 1; stroke-width: 1px;"></path><path class="xgrid crisp" transform="translate(296.12,0)" d="M0,100v247" style="stroke: rgb(238, 238, 238); stroke-opacity: 1; stroke-width: 1px;"></path><path class="xgrid crisp" transform="translate(398.57,0)" d="M0,100v247" style="stroke: rgb(238, 238, 238); stroke-opacity: 1; stroke-width: 1px;"></path><path class="xgrid crisp" transform="translate(501.02,0)" d="M0,100v247" style="stroke: rgb(238, 238, 238); stroke-opacity: 1; stroke-width: 1px;"></path><path class="xgrid crisp" transform="translate(603.47,0)" d="M0,100v247" style="stroke: rgb(238, 238, 238); stroke-opacity: 1; stroke-width: 1px;"></path></g><g class="y"><path class="ygrid crisp" transform="translate(0,343.57)" d="M80,0h589" style="stroke: rgb(238, 238, 238); stroke-opacity: 1; stroke-width: 1px;"></path><path class="ygrid crisp" transform="translate(0,274.96000000000004)" d="M80,0h589" style="stroke: rgb(238, 238, 238); stroke-opacity: 1; stroke-width: 1px;"></path><path class="ygrid crisp" transform="translate(0,206.35)" d="M80,0h589" style="stroke: rgb(238, 238, 238); stroke-opacity: 1; stroke-width: 1px;"></path><path class="ygrid crisp" transform="translate(0,137.74)" d="M80,0h589" style="stroke: rgb(238, 238, 238); stroke-opacity: 1; stroke-width: 1px;"></path></g></g><g class="zerolinelayer"></g><path class="xlines-below"></path><path class="ylines-below"></path><g class="overlines-below"></g><g class="xaxislayer-below"></g><g class="yaxislayer-below"></g><g class="overaxes-below"></g><g class="plot" transform="translate(80, 100)" clip-path="url('#clipb33268xyplot')"><g class="scatterlayer mlayer"><g class="trace scatter trace482da3" style="stroke-miterlimit: 2; opacity: 1;"><g class="fills"></g><g class="errorbars"></g><g class="lines"><path class="js-line" d="M0,126.93L8.6,123.5L17.2,123.5L25.71,120.07L34.12,120.07L42.72,123.5L51.32,123.5L59.83,116.64L68.24,113.21L76.84,113.21L85.44,120.07L102.45,126.93L111.05,140.65L119.65,147.51L128.16,150.94L136.57,150.94L145.17,147.51L153.77,144.08L162.28,144.08L170.69,144.08L179.29,147.51L213.41,161.24L222.01,161.24L230.51,157.81L239.02,157.81L256.22,157.81L264.73,154.38L281.74,154.38L290.34,150.94L315.86,150.94L324.46,154.38L341.38,154.38L349.98,150.94L358.58,144.08L367.09,140.65L375.59,137.22L384.19,130.36L392.79,123.5L401.3,120.07L409.71,116.64L418.31,116.64L426.91,116.64L435.42,113.21L443.83,116.64L452.43,116.64L486.55,102.92L495.15,92.62L512.16,72.04L520.76,78.9L529.36,68.61L537.87,51.46L546.28,30.88L554.88,27.44L563.48,17.15L571.99,17.15L580.4,27.44L589,34.31" style="vector-effect: non-scaling-stroke; fill: none; stroke: rgb(0, 133, 155); stroke-opacity: 1; stroke-width: 4px; opacity: 1;"></path></g><g class="points"></g><g class="text"></g></g><g class="trace scatter trace53a0ff" style="stroke-miterlimit: 2; opacity: 1;"><g class="fills"></g><g class="errorbars"></g><g class="lines"><path class="js-line" d="M0,133.79L8.6,126.93L17.2,123.5L34.12,116.64L42.72,120.07L59.83,113.21L68.24,106.35L85.44,106.35L93.94,109.78L102.45,116.64L111.05,130.36L128.16,144.08L136.57,144.08L162.28,133.79L170.69,133.79L196.4,144.08L204.81,144.08L222.01,144.08L230.51,147.51L247.62,147.51L256.22,144.08L281.74,133.79L290.34,126.93L324.46,126.93L332.97,123.5L358.58,102.92L367.09,99.49L375.59,96.06L384.19,85.76L392.79,75.47L401.3,75.47L418.31,82.33L426.91,82.33L435.42,85.76L443.83,85.76L452.43,92.62L461.03,96.06L469.54,99.49L477.95,99.49L486.55,102.92L495.15,99.49L503.66,96.06L512.16,89.19L520.76,92.62L529.36,82.33L537.87,65.18L546.28,41.17L554.88,34.31L563.48,20.58L571.99,6.86L580.4,17.15L589,20.58" style="vector-effect: non-scaling-stroke; fill: none; stroke: rgb(135, 2, 123); stroke-opacity: 1; stroke-width: 4px; opacity: 1;"></path></g><g class="points"></g><g class="text"></g></g></g></g><g class="overplot"></g><path class="xlines-above crisp" d="M0,0" style="fill: none;"></path><path class="ylines-above crisp" d="M0,0" style="fill: none;"></path><g class="overlines-above"></g><g class="xaxislayer-above"><g class="xtick"><text text-anchor="middle" x="0" y="360" data-unformatted="Jun '05" data-math="N" transform="translate(91.31,0)" style="font-family: &quot;Open Sans&quot;, verdana, arial, sans-serif; font-size: 12px; fill: rgb(68, 68, 68); fill-opacity: 1; white-space: pre;">Jun '05</text></g><g class="xtick"><text text-anchor="middle" x="0" y="360" data-unformatted="Jun '08" data-math="N" transform="translate(193.76,0)" style="font-family: &quot;Open Sans&quot;, verdana, arial, sans-serif; font-size: 12px; fill: rgb(68, 68, 68); fill-opacity: 1; white-space: pre;">Jun '08</text></g><g class="xtick"><text text-anchor="middle" x="0" y="360" data-unformatted="Jun '11" data-math="N" transform="translate(296.12,0)" style="font-family: &quot;Open Sans&quot;, verdana, arial, sans-serif; font-size: 12px; fill: rgb(68, 68, 68); fill-opacity: 1; white-space: pre;">Jun '11</text></g><g class="xtick"><text text-anchor="middle" x="0" y="360" data-unformatted="Jun '14" data-math="N" transform="translate(398.57,0)" style="font-family: &quot;Open Sans&quot;, verdana, arial, sans-serif; font-size: 12px; fill: rgb(68, 68, 68); fill-opacity: 1; white-space: pre;">Jun '14</text></g><g class="xtick"><text text-anchor="middle" x="0" y="360" data-unformatted="Jun '17" data-math="N" transform="translate(501.02,0)" style="font-family: &quot;Open Sans&quot;, verdana, arial, sans-serif; font-size: 12px; fill: rgb(68, 68, 68); fill-opacity: 1; white-space: pre;">Jun '17</text></g><g class="xtick"><text text-anchor="middle" x="0" y="360" data-unformatted="Jun '20" data-math="N" transform="translate(603.47,0)" style="font-family: &quot;Open Sans&quot;, verdana, arial, sans-serif; font-size: 12px; fill: rgb(68, 68, 68); fill-opacity: 1; white-space: pre;">Jun '20</text></g></g><g class="yaxislayer-above"><g class="ytick"><text text-anchor="end" x="79" y="4.199999999999999" data-unformatted="2" data-math="N" transform="translate(0,343.57)" style="font-family: &quot;Open Sans&quot;, verdana, arial, sans-serif; font-size: 12px; fill: rgb(68, 68, 68); fill-opacity: 1; white-space: pre;">2</text></g><g class="ytick"><text text-anchor="end" x="79" y="4.199999999999999" data-unformatted="4" data-math="N" transform="translate(0,274.96000000000004)" style="font-family: &quot;Open Sans&quot;, verdana, arial, sans-serif; font-size: 12px; fill: rgb(68, 68, 68); fill-opacity: 1; white-space: pre;">4</text></g><g class="ytick"><text text-anchor="end" x="79" y="4.199999999999999" data-unformatted="6" data-math="N" transform="translate(0,206.35)" style="font-family: &quot;Open Sans&quot;, verdana, arial, sans-serif; font-size: 12px; fill: rgb(68, 68, 68); fill-opacity: 1; white-space: pre;">6</text></g><g class="ytick"><text text-anchor="end" x="79" y="4.199999999999999" data-unformatted="8" data-math="N" transform="translate(0,137.74)" style="font-family: &quot;Open Sans&quot;, verdana, arial, sans-serif; font-size: 12px; fill: rgb(68, 68, 68); fill-opacity: 1; white-space: pre;">8</text></g></g><g class="overaxes-above"></g></g></g><g class="polarlayer"></g><g class="ternarylayer"></g><g class="geolayer"></g><g class="funnelarealayer"></g><g class="pielayer"></g><g class="treemaplayer"></g><g class="sunburstlayer"></g><g class="glimages"></g></svg>